<?xml version="1.0" standalone="no"?><!DOCTYPE svg PUBLIC "-//W3C//DTD SVG 1.1//EN" "http://www.w3.org/Graphics/SVG/1.1/DTD/svg11.dtd"><svg t="1687164905532" class="icon" viewBox="0 0 1024 1024" version="1.1" xmlns="http://www.w3.org/2000/svg" p-id="808" xmlns:xlink="http://www.w3.org/1999/xlink" width="200" height="200"><path d="M521.552239 53.492537c-252.179104 0-458.507463 206.328358-458.507463 458.507463s206.328358 458.507463 458.507463 458.507463 458.507463-206.328358 458.507462-458.507463-204.41791-458.507463-458.507462-458.507463z m0 840.597015c-210.149254 0-382.089552-171.940299-382.089552-382.089552s171.940299-382.089552 382.089552-382.089552 382.089552 171.940299 382.089552 382.089552-171.940299 382.089552-382.089552 382.089552z" fill="#1296db" p-id="809"></path><path d="M718.328358 301.850746L280.835821 578.865672c-1.910448 1.910448-3.820896 3.820896-1.910448 5.731343 0 1.910448 1.910448 3.820896 5.731343 3.820895l160.477612 5.731344 13.373135 160.477612c0 1.910448 1.910448 3.820896 3.820895 5.731343h1.910448c1.910448 0 3.820896-1.910448 5.731343-1.910448L725.970149 311.402985c1.910448-1.910448 0-5.731343-1.910448-7.641791 0-1.910448-3.820896-1.910448-5.731343-1.910448z" fill="#1296db" p-id="810"></path></svg>