<svg xmlns="http://www.w3.org/2000/svg" viewBox="0 0 32 32" width="68" height="68" style="border-color: rgba(0,0,0,0);border-width: bpx;border-style: undefined" filter="none">
    
    <g>
    <path d="M31.168 6.656l-7.488-6.528c-0.192-0.16-0.128-0.192-0.352 0l-7.104 6.208-0.448 0.416v0.032h4.032c0.128 0 0.192 0 0.16 0.16-0.141 0.809-0.318 1.509-0.543 2.187l0.031-0.107c-1.6 5.344-5.792 9.792-11.2 11.456-1.856 0.576-3.712 0.8-5.632 0.672-0.58-0.042-1.086-0.099-1.586-0.174l0.114 0.014c-0.256-0.032-0.448 0.16-0.416 0.384 0.064 0.16 0.16 0.224 0.32 0.256 3.328 1.152 6.752 1.44 10.24 0.896 2.976-0.48 5.76-1.504 8.288-3.2 4.416-3.008 7.168-7.104 8.096-12.384 0.032-0.128 0.096-0.16 0.224-0.16h3.2c0.032 0 0.096 0 0.16-0.032 0-0.064-0.064-0.064-0.096-0.096zM28.64 19.872v-12.032c0-0.032 0-0.064-0.032-0.064s-0.064 0.032-0.064 0.064-0.032 0.032-0.032 0.064c-0.64 2.976-1.888 5.632-3.776 8-0.064 0.096-0.064 0.16-0.064 0.256v15.68c0 0.128 0.032 0.16 0.16 0.16h3.616c0.224 0 0.192 0.032 0.192-0.224v-11.904zM22.688 18.176c-0.064 0.032-0.096 0.064-0.128 0.096-1.152 1.024-2.4 1.952-3.776 2.688-0.096 0.064-0.096 0.128-0.096 0.224v10.656c0 0.128 0.032 0.16 0.16 0.16h3.616c0.192 0 0.224-0.064 0.224-0.224-0.032-4.448-0.032-8.928-0.032-13.376v-0.224h0.032zM16.704 22.208c0-0.192 0-0.192-0.192-0.128-1.039 0.465-2.259 0.863-3.527 1.131l-0.121 0.021c-0.128 0.032-0.16 0.096-0.16 0.224v8.352c0 0.16 0.032 0.192 0.192 0.192h3.616c0.16 0 0.192-0.032 0.192-0.192v-9.6zM4.576 23.52c-1.397-0.214-2.637-0.526-3.829-0.941l0.149 0.045c-0.128-0.032-0.16 0-0.16 0.128v9.056c0 0.16 0.064 0.192 0.224 0.192h3.616c0.128 0 0.16-0.032 0.16-0.16v-8.128c0-0.128-0.032-0.192-0.16-0.192zM10.72 23.776c0-0.128-0.032-0.16-0.16-0.16-0.762 0.102-1.643 0.16-2.537 0.16-0.402 0-0.802-0.012-1.198-0.035l0.055 0.003c-0.128 0-0.16 0.032-0.16 0.192v7.904c0 0.128 0.032 0.16 0.192 0.16h3.616c0.16 0 0.192-0.064 0.192-0.192v-8.032z" fill="rgba(13.004999999999999,146.11499999999998,14.025,1)"></path>
    </g>
  </svg>